HIERARCHY
ROOT Hips
{
	OFFSET 0.000000 0.000000 0.000000
	CHANNELS 6 Xposition Yposition Zposition Xrotation Yrotation Zrotation
	JOINT LeftUpLeg_virtual
	{
		OFFSET 0.000000 0.000000 0.000000
		CHANNELS 3 Xrotation Yrotation Zrotation
		JOINT LeftUpLeg
		{
			OFFSET 15.427100 -6.655098 0.678600
			CHANNELS 3 Xrotation Yrotation Zrotation
			JOINT LeftLeg
			{
				OFFSET 4.081073 -39.591068 13.024000
				CHANNELS 3 Xrotation Yrotation Zrotation
				JOINT LeftFoot
				{
					OFFSET -4.081074 -37.707932 -15.979700
					CHANNELS 3 Xrotation Yrotation Zrotation
					JOINT LeftToeBase
					{
						OFFSET 5.346399 -15.068900 20.645000
						CHANNELS 3 Xrotation Yrotation Zrotation
						JOINT LeftToe_End
						{
							OFFSET 2.754700 0.931300 11.300900
							CHANNELS 3 Xrotation Yrotation Zrotation
							End Site
							{
								OFFSET 0 0 0
							}
						}
					}
				}
			}
		}
	}
	JOINT RightUpLeg_virtual
	{
		OFFSET 0.000000 0.000000 0.000000
		CHANNELS 3 Xrotation Yrotation Zrotation
		JOINT RightUpLeg
		{
			OFFSET -15.569500 -6.655098 0.678600
			CHANNELS 3 Xrotation Yrotation Zrotation
			JOINT RightLeg
			{
				OFFSET -4.081825 -39.591045 13.023800
				CHANNELS 3 Xrotation Yrotation Zrotation
				JOINT RightFoot
				{
					OFFSET 4.081824 -37.707954 -15.979600
					CHANNELS 3 Xrotation Yrotation Zrotation
					JOINT RightToeBase
					{
						OFFSET -5.346400 -15.068900 20.645000
						CHANNELS 3 Xrotation Yrotation Zrotation
						JOINT RightToe_End
						{
							OFFSET -2.754700 0.931300 11.300900
							CHANNELS 3 Xrotation Yrotation Zrotation
							End Site
							{
								OFFSET 0 0 0
							}
						}
					}
				}
			}
		}
	}
	JOINT Spine_virtual
	{
		OFFSET 0.000000 0.000000 0.000000
		CHANNELS 3 Xrotation Yrotation Zrotation
		JOINT Spine
		{
			OFFSET -0.279200 12.230698 -2.892100
			CHANNELS 3 Xrotation Yrotation Zrotation
			JOINT Spine1
			{
				OFFSET -0.232667 10.192268 -1.242267
				CHANNELS 3 Xrotation Yrotation Zrotation
				JOINT Spine1_split
				{
					OFFSET -0.232667 10.192268 -1.242267
					CHANNELS 3 Xrotation Yrotation Zrotation
					JOINT Spine2
					{
						OFFSET -0.232667 10.192268 -1.242267
						CHANNELS 3 Xrotation Yrotation Zrotation
						JOINT Neck_virtual
						{
							OFFSET 0.000000 0.000000 0.000000
							CHANNELS 3 Xrotation Yrotation Zrotation
							JOINT Neck
							{
								OFFSET -0.418800 17.814194 8.416900
								CHANNELS 3 Xrotation Yrotation Zrotation
								JOINT Head
								{
									OFFSET 0.000000 7.031097 3.806800
									CHANNELS 3 Xrotation Yrotation Zrotation
									JOINT HeadTop_End
									{
										OFFSET 0.000000 24.646606 12.978600
										CHANNELS 3 Xrotation Yrotation Zrotation
										End Site
										{
											OFFSET 0 0 0
										}
									}
								}
							}
						}
						JOINT LeftShoulder_virtual
						{
							OFFSET 0.000000 0.000000 0.000000
							CHANNELS 3 Xrotation Yrotation Zrotation
							JOINT LeftShoulder
							{
								OFFSET 8.476499 7.247704 -3.868750
								CHANNELS 3 Xrotation Yrotation Zrotation
								JOINT LeftShoulder_split
								{
									OFFSET 8.476499 7.247704 -3.868750
									CHANNELS 3 Xrotation Yrotation Zrotation
									JOINT LeftArm
									{
										OFFSET 9.308998 -2.777710 0.208600
										CHANNELS 3 Xrotation Yrotation Zrotation
										JOINT LeftForeArm
										{
											OFFSET 29.972298 0.000000 0.000000
											CHANNELS 3 Xrotation Yrotation Zrotation
											JOINT LeftHand
											{
												OFFSET 26.026505 0.000000 0.000000
												CHANNELS 3 Xrotation Yrotation Zrotation
												End Site
												{
													OFFSET 0 0 0
												}
											}
										}
									}
								}
							}
						}
						JOINT RightShoulder_virtual
						{
							OFFSET 0.000000 0.000000 0.000000
							CHANNELS 3 Xrotation Yrotation Zrotation
							JOINT RightShoulder
							{
								OFFSET -7.570500 7.247704 -3.868750
								CHANNELS 3 Xrotation Yrotation Zrotation
								JOINT RightShoulder_split
								{
									OFFSET -7.570500 7.247704 -3.868750
									CHANNELS 3 Xrotation Yrotation Zrotation
									JOINT RightArm
									{
										OFFSET -9.308998 -2.777710 0.208500
										CHANNELS 3 Xrotation Yrotation Zrotation
										JOINT RightForeArm
										{
											OFFSET -29.972300 0.000000 0.000000
											CHANNELS 3 Xrotation Yrotation Zrotation
											JOINT RightHand
											{
												OFFSET -26.026505 0.000000 0.000000
												CHANNELS 3 Xrotation Yrotation Zrotation
												End Site
												{
													OFFSET 0 0 0
												}
											}
										}
									}
								}
							}
						}
					}
				}
			}
		}
	}
}
MOTION
Frames: 11
Frame Time: 0.03333333
0.963140 112.253960 2.206535 0.000000 0.000000 0.000000 -86.550170 -4.173261 -0.685664 2.004333 18.634243 17.159851 -1.722465 4.078384 4.787299 17.461203 28.295058 -24.655562 -4.982410 -0.223294 1.304340 0.000000 0.000000 0.000000 -88.022594 -0.696519 1.223753 4.810931 -20.031785 -12.526741 0.319477 -2.437812 -7.795513 26.873791 -32.178155 30.724015 -11.977904 0.770146 -1.142447 0.000000 0.000000 0.000000 -86.732215 -6.297530 -3.724054 4.356433 1.760628 0.391596 16.646016 4.038847 -1.796563 0.492844 -0.346546 -0.098012 0.000000 0.000000 0.000000 14.962158 3.770069 -2.305143 -2.310701 1.142209 -4.115786 21.245011 4.810021 -8.727482 0.000000 0.000000 0.000000 16.810713 3.358485 -1.669207 -0.420873 7.038376 1.896953 -0.288299 -0.978490 -2.987513 15.737832 -51.474040 -39.654658 -0.386018 -80.939497 0.072415 0.000000 0.000000 0.000000 15.090046 3.540260 -2.064640 0.830478 2.140886 14.589849 1.351352 2.527249 1.743209 -34.020035 34.568322 62.228460 178.534970 53.690614 -179.979487 0.000000 0.000000 0.000000 
0.931902 112.077171 2.004692 0.000000 0.000000 0.000000 -86.440552 -4.593014 -1.021182 2.019809 18.268239 17.379671 -1.818070 4.418849 4.805232 17.407120 28.637433 -24.691183 -4.988382 -0.236886 1.141199 0.000000 0.000000 0.000000 -87.965754 -1.286604 0.709050 4.331654 -20.157425 -12.238805 0.076657 -2.341972 -7.635607 27.377386 -31.631583 30.764306 -12.402837 0.765151 -1.067620 0.000000 0.000000 0.000000 -86.723854 -6.712278 -3.888271 3.705555 1.582502 0.360146 16.364520 3.834272 -1.676720 0.616349 -0.168973 -0.152507 0.000000 0.000000 0.000000 14.746626 3.618701 -2.207300 -1.507019 0.968197 -3.962246 21.825487 4.953987 -8.940425 0.000000 0.000000 0.000000 16.618088 3.151581 -1.569140 -0.339497 6.415538 1.608905 -0.367300 -1.089855 -2.798731 16.844572 -50.467581 -39.891703 -0.412632 -81.167332 -0.097903 0.000000 0.000000 0.000000 14.981257 3.388429 -1.913465 0.873920 1.555440 14.816567 0.969144 2.707139 1.884679 -34.329098 35.677824 62.048894 178.444949 54.865031 -179.900148 0.000000 0.000000 0.000000 
0.913239 111.917068 1.917984 0.000000 0.000000 0.000000 -86.166094 -4.978659 -1.475849 1.883264 17.844924 17.539000 -2.013920 4.720563 4.701548 17.943756 28.856883 -24.728264 -5.110583 -0.273013 1.008046 0.000000 0.000000 0.000000 -87.660212 -1.746739 0.137595 3.809179 -20.232222 -12.061953 -0.268310 -2.236574 -7.373900 28.463504 -30.907036 31.106867 -13.121479 0.759249 -1.007294 0.000000 0.000000 0.000000 -86.451316 -6.968133 -4.078431 3.009475 1.368585 0.405617 15.913723 3.486391 -1.502586 0.724128 0.067386 -0.160344 0.000000 0.000000 0.000000 14.301418 3.322067 -2.028817 -0.677800 0.778575 -3.709282 22.391529 4.819527 -9.038453 0.000000 0.000000 0.000000 16.230835 2.796374 -1.394745 -0.238668 5.748769 1.441733 -0.453259 -1.030472 -2.624719 17.953051 -49.358686 -40.689090 -0.535856 -81.563032 -0.419708 0.000000 0.000000 0.000000 14.703253 3.092271 -1.715181 0.889589 1.039365 14.912752 0.628909 3.003487 2.083426 -33.590013 36.955879 61.181522 178.340952 55.462273 -179.746263 0.000000 0.000000 0.000000 
0.908941 111.784409 1.882656 0.000000 0.000000 0.000000 -85.740157 -5.300474 -2.008511 1.616656 17.452515 17.612068 -2.286979 4.951300 4.483039 19.027184 28.904387 -24.813582 -5.202452 -0.319624 0.913753 0.000000 0.000000 0.000000 -87.190459 -2.103525 -0.479708 3.367426 -20.256412 -11.926265 -0.763959 -2.195042 -7.084364 29.679293 -30.304040 31.469547 -13.815902 0.752271 -0.958194 0.000000 0.000000 0.000000 -85.994943 -7.088242 -4.341119 2.362239 1.133012 0.534941 15.278681 3.017444 -1.274030 0.802235 0.289632 -0.211536 0.000000 0.000000 0.000000 13.628956 2.902100 -1.780155 0.019350 0.591885 -3.384430 22.792352 4.537639 -9.100115 0.000000 0.000000 0.000000 15.620246 2.327394 -1.160519 -0.126241 5.116517 1.356867 -0.522498 -0.955159 -2.513002 19.154432 -48.065967 -41.899321 -1.010126 -81.973656 -1.115517 0.000000 0.000000 0.000000 14.230852 2.676529 -1.478270 0.857796 0.598109 14.844380 0.381006 3.143852 2.299955 -31.856812 38.163812 59.530372 178.274795 55.333507 -179.561575 0.000000 0.000000 0.000000 
0.892714 111.696457 1.959156 0.000000 0.000000 0.000000 -85.282603 -5.514448 -2.533559 1.305111 17.169999 17.575982 -2.587131 5.132239 4.190701 20.420589 28.817012 -24.949139 -5.266289 -0.363396 0.872638 0.000000 0.000000 0.000000 -86.635779 -2.359235 -1.068119 3.089808 -20.233356 -11.768827 -1.349108 -2.266803 -6.861792 30.647404 -30.110022 31.606588 -14.385348 0.746626 -0.935075 0.000000 0.000000 0.000000 -85.431808 -7.097484 -4.649152 1.857792 0.902118 0.726342 14.473266 2.478361 -1.007966 0.874925 0.633056 -0.270741 0.000000 0.000000 0.000000 12.766098 2.404395 -1.482813 0.464225 0.430026 -3.069581 22.962532 4.203101 -9.214592 0.000000 0.000000 0.000000 14.803054 1.804053 -0.898307 -0.024260 4.518282 1.319342 -0.739097 -0.891498 -2.513849 20.464188 -46.565405 -43.319157 -2.011487 -82.219461 -2.297735 0.000000 0.000000 0.000000 13.551651 2.203154 -1.217712 0.744423 0.234440 14.700310 0.302532 3.040060 2.453629 -29.436964 39.043888 57.291733 178.294247 54.625742 -179.400970 0.000000 0.000000 0.000000 
0.885703 111.693733 2.017548 0.000000 0.000000 0.000000 -84.846399 -5.652777 -2.990731 1.064996 17.031145 17.437275 -2.874988 5.279750 3.894854 21.860604 28.676044 -25.144276 -5.371481 -0.392707 0.904870 0.000000 0.000000 0.000000 -86.113700 -2.601057 -1.629811 3.001844 -20.204465 -11.577230 -1.873828 -2.444388 -6.722089 31.301026 -30.311714 31.554969 -14.894664 0.748476 -0.947812 0.000000 0.000000 0.000000 -84.885051 -7.094237 -5.001123 1.544199 0.691375 0.930437 13.525841 1.923590 -0.741830 0.937240 0.902003 -0.390189 0.000000 0.000000 0.000000 11.774140 1.888900 -1.173816 0.596798 0.332711 -2.818397 22.877225 3.939010 -9.412580 0.000000 0.000000 0.000000 13.819221 1.290365 -0.642006 0.052030 3.968789 1.259131 -0.997986 -0.920363 -2.624949 21.757994 -44.904949 -44.753254 -3.415056 -82.257348 -3.798947 0.000000 0.000000 0.000000 12.713918 1.733115 -0.961168 0.534899 -0.047842 14.555709 0.392415 2.748702 2.741716 -26.690726 39.496655 54.844944 178.372494 53.787788 -179.257113 0.000000 0.000000 0.000000 
0.861546 111.750046 2.086430 0.000000 0.000000 0.000000 -84.519192 -5.759002 -3.345549 1.004640 17.082429 17.222431 -3.087243 5.416556 3.646316 23.066923 28.529051 -25.391587 -5.575285 -0.399586 0.990139 0.000000 0.000000 0.000000 -85.747411 -2.825292 -2.073662 3.042979 -20.173403 -11.422761 -2.255181 -2.581137 -6.635090 31.760854 -30.649934 31.538924 -15.484718 0.760362 -1.001795 0.000000 0.000000 0.000000 -84.460241 -7.127186 -5.337636 1.431303 0.505963 1.079580 12.462904 1.402707 -0.510606 1.034272 1.179693 -0.485692 0.000000 0.000000 0.000000 10.720307 1.417950 -0.895922 0.462424 0.314332 -2.678874 22.608638 3.826878 -9.682980 0.000000 0.000000 0.000000 12.716613 0.847776 -0.422360 0.094810 3.520807 1.107213 -1.256549 -0.977072 -2.780129 22.907498 -43.222639 -46.027958 -4.629021 -82.082427 -5.028763 0.000000 0.000000 0.000000 11.748468 1.319542 -0.748529 0.241718 -0.246290 14.456435 0.625367 2.479093 3.104642 -23.984385 39.497143 52.645377 178.472734 53.201580 -179.119320 0.000000 0.000000 0.000000 
0.821140 111.863663 2.116982 0.000000 0.000000 0.000000 -84.353833 -5.882004 -3.596787 1.121125 17.351450 17.000472 -3.222145 5.556923 3.483363 23.825117 28.440628 -25.605061 -5.872258 -0.384614 1.117282 0.000000 0.000000 0.000000 -85.565687 -3.052986 -2.403514 3.127916 -20.182756 -11.335145 -2.414885 -2.602053 -6.565170 32.149533 -30.905052 31.697586 -16.127658 0.781961 -1.083915 0.000000 0.000000 0.000000 -84.215065 -7.242406 -5.633792 1.481817 0.342075 1.142880 11.300806 0.953881 -0.338668 1.009882 1.409255 -0.586435 0.000000 0.000000 0.000000 9.621153 1.021578 -0.673090 0.164028 0.359933 -2.633043 22.275610 3.859863 -9.936767 0.000000 0.000000 0.000000 11.541649 0.501927 -0.251195 0.089728 3.194832 0.902385 -1.429508 -1.048398 -2.964325 23.794569 -41.670024 -47.090350 -5.294366 -81.780450 -5.633309 0.000000 0.000000 0.000000 10.700854 0.991763 -0.602497 -0.120543 -0.354739 14.416129 0.984375 2.361152 3.364678 -21.533710 39.153943 50.968091 178.573219 53.035637 -178.999574 0.000000 0.000000 0.000000 
0.760019 111.990524 2.084888 0.000000 0.000000 0.000000 -84.339688 -6.044960 -3.758506 1.382734 17.830841 16.829789 -3.292045 5.698687 3.417333 24.046186 28.415172 -25.739616 -6.126984 -0.352316 1.247488 0.000000 0.000000 0.000000 -85.573282 -3.262670 -2.603483 3.257813 -20.280044 -11.281817 -2.407379 -2.527651 -6.494374 32.526542 -31.016237 31.968506 -16.594438 0.804228 -1.152615 0.000000 0.000000 0.000000 -84.189752 -7.434286 -5.878409 1.619419 0.185161 1.107600 10.067933 0.587644 -0.232327 0.936047 1.533711 -0.599365 0.000000 0.000000 0.000000 8.503245 0.714335 -0.514049 -0.197341 0.435019 -2.626260 21.946854 3.990600 -10.049399 0.000000 0.000000 0.000000 10.326098 0.252665 -0.128067 0.044471 3.039555 0.662873 -1.465843 -1.109429 -3.175740 24.414860 -40.352857 -47.972452 -5.229447 -81.487148 -5.472930 0.000000 0.000000 0.000000 9.620757 0.740157 -0.526605 -0.514256 -0.356052 14.371505 1.365119 2.349577 3.506558 -19.284025 38.630915 49.804346 178.648871 53.338948 -178.903705 0.000000 0.000000 0.000000 
0.669827 112.077698 2.084011 0.000000 0.000000 0.000000 -84.483464 -6.193274 -3.831670 1.716524 18.486964 16.745710 -3.325078 5.816227 3.420699 23.792028 28.409409 -25.808426 -6.284261 -0.305434 1.372438 0.000000 0.000000 0.000000 -85.730390 -3.402693 -2.676333 3.419744 -20.473574 -11.209378 -2.347877 -2.401069 -6.419930 32.800211 -31.055361 32.177325 -16.690440 0.822592 -1.178908 0.000000 0.000000 0.000000 -84.344565 -7.635898 -6.051008 1.808598 0.018188 0.998149 8.790558 0.296612 -0.175700 0.792003 1.631133 -0.511719 0.000000 0.000000 0.000000 7.367917 0.473803 -0.404489 -0.561291 0.521504 -2.618341 21.657488 4.168700 -9.926563 0.000000 0.000000 0.000000 9.103814 0.073251 -0.040631 -0.027307 3.045865 0.435109 -1.485776 -1.063465 -3.444585 24.849167 -39.243596 -48.794544 -4.502305 -81.292816 -4.658440 0.000000 0.000000 0.000000 8.514769 0.547456 -0.500705 -0.903144 -0.266155 14.284968 1.768672 2.423389 3.406407 -17.038540 37.938159 48.953571 178.695289 53.968852 -178.849733 0.000000 0.000000 0.000000 
0.587763 112.129929 2.062977 0.000000 0.000000 0.000000 -84.698492 -6.266749 -3.811378 2.040763 19.251945 16.764873 -3.390401 5.885392 3.453148 23.298347 28.348292 -25.891290 -6.381003 -0.248096 1.511082 0.000000 0.000000 0.000000 -85.983530 -3.485336 -2.693680 3.637993 -20.758553 -11.067795 -2.312080 -2.339605 -6.358342 32.970682 -31.121631 32.214294 -16.491468 0.837792 -1.146383 0.000000 0.000000 0.000000 -84.636132 -7.814337 -6.171089 2.013239 -0.164452 0.857771 7.508276 0.058615 -0.144741 0.630701 1.629503 -0.409307 0.000000 0.000000 0.000000 6.223441 0.275556 -0.325884 -0.970285 0.609500 -2.559547 21.284369 4.354193 -9.504528 0.000000 0.000000 0.000000 7.893453 -0.070304 0.032307 -0.108806 3.149259 0.271170 -1.501774 -1.009160 -3.810300 25.225489 -38.261162 -49.639595 -3.461329 -81.223626 -3.553349 0.000000 0.000000 0.000000 7.415143 0.391342 -0.488278 -1.256724 -0.085157 14.136273 2.163103 2.440903 3.166717 -14.514029 37.083160 48.127060 178.693322 54.798983 -178.819339 0.000000 0.000000 0.000000 
